# xmcd
#
# Track frame offsets:
#	150
#	11518
#	25354
#	38820
#	53796
#	81900
#	96216
#	107502
#
# Disc length: 1651 seconds
# Revision: 0
# Processed by: cddbd v1.5.2PL0 Copyright (c) Steve Scherf et al.
# Submitted via: dBpowerAMP V12.0
#
DISCID=59067108
DTITLE=B.B. King - Lucille Talks Back [ABC Records] (L)
DYEAR=1975
DGENRE=Blues
TTITLE0=Lucille Talks Back (Copulation)
TTITLE1=Breaking up Somebody's Home
TTITLE2=Reconsider Baby
TTITLE3=Don't Make Me Pay for His Mistakes
TTITLE4=When I'm Wrong
TTITLE5=I Know the Price
TTITLE6=Have Faith
TTITLE7=Everybody Lies a Little
EXTD=
EXTT0=
EXTT1=
EXTT2=
EXTT3=
EXTT4=
EXTT5=
EXTT6=
EXTT7=
PLAYORDER=
